<?xml version="1.0" encoding="UTF-8"?>
<svg width="612px" height="612px" viewBox="0 0 612 612" version="1.1" xmlns="http://www.w3.org/2000/svg" xmlns:xlink="http://www.w3.org/1999/xlink">
    <title>编组</title>
    <defs>
        <linearGradient x1="6.72999314%" y1="74.9706213%" x2="93.2658949%" y2="25.0089335%" id="linearGradient-1">
            <stop stop-color="#FFFFFF" stop-opacity="0" offset="16.82%"></stop>
            <stop stop-color="#FFFFFF" offset="75.02%"></stop>
            <stop stop-color="#FFFFFF" offset="100%"></stop>
        </linearGradient>
    </defs>
    <g id="Page-1" stroke="none" stroke-width="1" fill="none" fill-rule="evenodd">
        <g id="3" transform="translate(-584.000000, -233.000000)" fill-rule="nonzero">
            <g id="编组" transform="translate(584.000000, 233.000000)">
                <path d="M306,43.714 C450.257,43.714 568.286,161.742 568.286,306 C568.286,450.257 450.257,568.286 306,568.286 C161.743,568.286 43.714,450.257 43.714,306 C43.714,161.743 161.743,43.714 306,43.714 M306,0 C137.7,0 0,137.7 0,306 C0,474.3 137.7,612 306,612 C474.3,612 612,474.3 612,306 C612,137.7 474.3,0 306,0 L306,0 Z" id="形状" fill="url(#linearGradient-1)"></path>
                <g transform="translate(207.643000, 183.600000)" fill="#FFFFFF" id="路径">
                    <g transform="translate(-0.000000, 0.000000)">
                        <path d="M21.857,240.428 L21.857,240.428 C8.743,240.428 0,231.686 0,218.572 L0,21.857 C0,10.928 8.743,0 21.857,0 L21.857,0 C32.786,0 43.714,8.743 43.714,21.857 L43.714,218.572 C43.714,229.5 34.971,240.428 21.857,240.428 Z"></path>
                        <path d="M21.857,0 C8.743,0 0,8.743 0,21.857 L0,218.572 C0,229.5 8.743,240.428 21.857,240.428 C34.971,240.428 43.714,229.499 43.714,218.572 L43.714,21.857 C43.714,8.743 34.971,0 21.857,0 L21.857,0 Z"></path>
                    </g>
                    <g transform="translate(153.000000, 4.372000)">
                        <path d="M21.857,240.428 L21.857,240.428 C8.743,240.428 0,231.685 0,218.571 L0,21.857 C0,10.928 8.743,0 21.857,0 L21.857,0 C32.786,0 43.714,8.743 43.714,21.857 L43.714,218.571 C43.714,231.685 34.971,240.428 21.857,240.428 Z"></path>
                        <path d="M21.857,0 C10.928,0 0,8.743 0,21.857 L0,218.571 C0,229.5 10.929,240.428 21.857,240.428 C32.785,240.428 43.714,229.499 43.714,218.571 L43.714,21.857 C43.714,10.928 32.786,0 21.857,0 L21.857,0 Z"></path>
                    </g>
                </g>
            </g>
        </g>
    </g>
</svg>